<svg id="Group_50822" data-name="Group 50822" xmlns="http://www.w3.org/2000/svg" width="17.667" height="17.667" viewBox="0 0 17.667 17.667">
  <path id="Path_8483" data-name="Path 8483" d="M15.6,1.38h-.828V0h-1.38V1.38H4.279V0H2.9V1.38H2.07A2.073,2.073,0,0,0,0,3.45V15.6a2.073,2.073,0,0,0,2.07,2.07H15.6a2.073,2.073,0,0,0,2.07-2.07V3.45A2.073,2.073,0,0,0,15.6,1.38ZM2.07,2.76H2.9v1.38h1.38V2.76h9.109v1.38h1.38V2.76H15.6a.691.691,0,0,1,.69.69V5.107H1.38V3.45A.691.691,0,0,1,2.07,2.76ZM15.6,16.286H2.07a.691.691,0,0,1-.69-.69V6.487H16.286V15.6A.691.691,0,0,1,15.6,16.286Z" fill="#8492a7"/>
  <rect id="Rectangle_5241" data-name="Rectangle 5241" width="1.493" height="1.493" transform="translate(2.115 8.087)" fill="#8492a7"/>
  <rect id="Rectangle_5242" data-name="Rectangle 5242" width="1.493" height="1.493" transform="translate(5.101 8.087)" fill="#8492a7"/>
  <rect id="Rectangle_5243" data-name="Rectangle 5243" width="1.493" height="1.493" transform="translate(8.087 8.087)" fill="#8492a7"/>
  <rect id="Rectangle_5244" data-name="Rectangle 5244" width="1.493" height="1.493" transform="translate(11.073 8.087)" fill="#8492a7"/>
  <rect id="Rectangle_5245" data-name="Rectangle 5245" width="1.493" height="1.493" transform="translate(14.059 8.087)" fill="#8492a7"/>
  <rect id="Rectangle_5246" data-name="Rectangle 5246" width="1.493" height="1.493" transform="translate(2.115 11.073)" fill="#8492a7"/>
  <rect id="Rectangle_5247" data-name="Rectangle 5247" width="1.493" height="1.493" transform="translate(5.101 11.073)" fill="#8492a7"/>
  <rect id="Rectangle_5248" data-name="Rectangle 5248" width="1.493" height="1.493" transform="translate(8.087 11.073)" fill="#8492a7"/>
  <rect id="Rectangle_5249" data-name="Rectangle 5249" width="1.493" height="1.493" transform="translate(11.073 11.073)" fill="#8492a7"/>
  <rect id="Rectangle_5250" data-name="Rectangle 5250" width="1.493" height="1.493" transform="translate(2.115 14.059)" fill="#8492a7"/>
  <rect id="Rectangle_5251" data-name="Rectangle 5251" width="1.493" height="1.493" transform="translate(5.101 14.059)" fill="#8492a7"/>
  <rect id="Rectangle_5252" data-name="Rectangle 5252" width="1.493" height="1.493" transform="translate(8.087 14.059)" fill="#8492a7"/>
  <rect id="Rectangle_5253" data-name="Rectangle 5253" width="1.493" height="1.493" transform="translate(11.073 14.059)" fill="#8492a7"/>
  <rect id="Rectangle_5254" data-name="Rectangle 5254" width="1.493" height="1.493" transform="translate(14.059 11.073)" fill="#8492a7"/>
</svg>
