<svg xmlns="http://www.w3.org/2000/svg" width="14.716" height="18.111" viewBox="0 0 14.716 18.111">
  <g id="trash" transform="translate(-48)">
    <path id="Path_8484" data-name="Path 8484" d="M61.3,2.264H58.188V1.7A1.7,1.7,0,0,0,56.49,0H54.226a1.7,1.7,0,0,0-1.7,1.7v.566H49.415A1.415,1.415,0,0,0,48,3.679V4.811a.566.566,0,0,0,.566.566H62.15a.566.566,0,0,0,.566-.566V3.679A1.415,1.415,0,0,0,61.3,2.264ZM53.66,1.7a.567.567,0,0,1,.566-.566H56.49a.567.567,0,0,1,.566.566v.566h-3.4Z" transform="translate(0)" fill="#fff"/>
    <path id="Path_8485" data-name="Path 8485" d="M73.541,184a.177.177,0,0,0-.177.185l.467,9.8a1.7,1.7,0,0,0,1.7,1.617h8.6a1.7,1.7,0,0,0,1.7-1.617l.467-9.8a.177.177,0,0,0-.177-.185Zm8.548,1.415a.566.566,0,0,1,1.132,0v7.358a.566.566,0,0,1-1.132,0Zm-2.83,0a.566.566,0,0,1,1.132,0v7.358a.566.566,0,0,1-1.132,0Zm-2.83,0a.566.566,0,0,1,1.132,0v7.358a.566.566,0,0,1-1.132,0Z" transform="translate(-24.467 -177.491)" fill="#fff"/>
  </g>
</svg>
