<svg xmlns="http://www.w3.org/2000/svg" xmlns:xlink="http://www.w3.org/1999/xlink" width="33" height="40" viewBox="0 0 33 40">
  <defs>
    <clipPath id="clip-path">
      <rect id="Rectangle_15238" data-name="Rectangle 15238" width="33" height="40" transform="translate(-0.465 -0.064)" fill="#9f9f9f"/>
    </clipPath>
  </defs>
  <g id="delete" transform="translate(-352.857 -961.936)">
    <g id="Group_6110" data-name="Group 6110" transform="translate(353.322 962)">
      <g id="Group_6109" data-name="Group 6109" transform="translate(0 0)" clip-path="url(#clip-path)">
        <path id="Path_4249" data-name="Path 4249" d="M385.463,970.912l-.88-2.639a2.455,2.455,0,0,0-2.332-1.68h-7.4v-2.409A2.186,2.186,0,0,0,372.67,962h-6.776a2.186,2.186,0,0,0-2.183,2.184v2.409h-7.4a2.455,2.455,0,0,0-2.332,1.68l-.88,2.639a1.976,1.976,0,0,0,1.874,2.6h.92l2.025,25.044a3.623,3.623,0,0,0,3.591,3.314h15.953a3.623,3.623,0,0,0,3.59-3.314l2.025-25.044h.509a1.975,1.975,0,0,0,1.874-2.6Zm-19.415-6.576h6.468v2.257h-6.468Zm12.678,34.032a1.274,1.274,0,0,1-1.262,1.167H361.511a1.274,1.274,0,0,1-1.262-1.167l-2.01-24.856h22.5Zm-23.25-27.192.722-2.164a.121.121,0,0,1,.116-.083h25.938a.121.121,0,0,1,.116.083l.722,2.164Zm0,0" transform="translate(-353.279 -962)" fill="#9f9f9f"/>
      </g>
    </g>
    <path id="Path_4250" data-name="Path 4250" d="M622.4,1150.968l.062,0a1.168,1.168,0,0,0,1.165-1.107l1.1-21.057a1.168,1.168,0,0,0-2.333-.122l-1.1,21.057a1.168,1.168,0,0,0,1.106,1.227Zm0,0" transform="translate(-247.359 -152.682)" fill="#9f9f9f"/>
    <path id="Path_4251" data-name="Path 4251" d="M459.944,1149.868a1.168,1.168,0,0,0,1.165,1.1l.065,0a1.168,1.168,0,0,0,1.1-1.23l-1.149-21.057a1.168,1.168,0,0,0-2.333.127Zm0,0" transform="translate(-97.512 -152.685)" fill="#9f9f9f"/>
    <path id="Path_4252" data-name="Path 4252" d="M548.422,1150.971a1.168,1.168,0,0,0,1.168-1.168v-21.057a1.168,1.168,0,1,0-2.336,0V1149.8a1.168,1.168,0,0,0,1.168,1.168Zm0,0" transform="translate(-179.084 -152.684)" fill="#9f9f9f"/>
  </g>
</svg>
