<svg xmlns="http://www.w3.org/2000/svg" width="89" height="89" viewBox="0 0 89 89">
  <g id="Group_50848" data-name="Group 50848" transform="translate(-143 -308)">
    <g id="fav" transform="translate(30.5 111.5)">
      <circle id="Ellipse_7" data-name="Ellipse 7" cx="44.5" cy="44.5" r="44.5" transform="translate(112.5 196.5)" fill="#fff"/>
    </g>
    <g id="Coupons_Icon" data-name="Coupons Icon" transform="translate(162.992 308.67)">
      <path id="Path_8477" data-name="Path 8477" d="M48.631,46.16a1.034,1.034,0,0,0,1.035-1.035V39.952a4.142,4.142,0,0,0-4.138-4.138H37.74a5.009,5.009,0,0,1-.489-2.069,5.164,5.164,0,0,1,2.714-4.519,1.037,1.037,0,0,0,.4-1.422l-2.521-4.4a4.094,4.094,0,0,0-5.617-1.513L2.059,39.451a4.154,4.154,0,0,0-1.5,5.642l2.607,4.556a1.035,1.035,0,0,0,1.433.373,5.084,5.084,0,0,1,2.654-.759,5.15,5.15,0,0,1,4.9,3.64,5.162,5.162,0,0,1-4.9,3.6A1.034,1.034,0,0,0,6.214,57.54v5.173a4.142,4.142,0,0,0,4.138,4.138H45.527a4.142,4.142,0,0,0,4.138-4.138V57.54a1.034,1.034,0,0,0-1.035-1.035,5.173,5.173,0,0,1,0-10.346ZM33.27,23.675a2,2,0,0,1,1.537-.207,2.028,2.028,0,0,1,1.243.961l2.034,3.552a7.213,7.213,0,0,0-2.9,5.764,7.114,7.114,0,0,0,.32,2.069H12.419ZM7.249,47.194a7.1,7.1,0,0,0-2.779.574l-2.118-3.7A2.08,2.08,0,0,1,3.1,41.24l3.171-1.846a4.087,4.087,0,0,0-.057.559v5.173A1.034,1.034,0,0,0,7.249,46.16a5.156,5.156,0,0,1,4.45,2.581A7.185,7.185,0,0,0,7.249,47.194ZM47.6,58.5v4.212a2.072,2.072,0,0,1-2.069,2.069H20.7v-1.81a1.035,1.035,0,0,0-2.069,0v1.81H10.352a2.072,2.072,0,0,1-2.069-2.069V58.5a7.243,7.243,0,0,0,0-14.336V39.952a2.072,2.072,0,0,1,2.069-2.069h8.276v2.328a1.035,1.035,0,0,0,2.069,0V37.883H45.527A2.072,2.072,0,0,1,47.6,39.952v4.212a7.243,7.243,0,0,0,0,14.336Z" transform="translate(0 0)" fill="#8492a7"/>
      <path id="Path_8478" data-name="Path 8478" d="M193.027,269.337a1.034,1.034,0,0,0-1.035,1.035v2.069a1.035,1.035,0,1,0,2.069,0v-2.069A1.034,1.034,0,0,0,193.027,269.337Z" transform="translate(-173.363 -223.953)" fill="#8492a7"/>
      <path id="Path_8479" data-name="Path 8479" d="M193.027,354.67a1.034,1.034,0,0,0-1.035,1.035v2.069a1.035,1.035,0,1,0,2.069,0V355.7A1.034,1.034,0,0,0,193.027,354.67Z" transform="translate(-173.363 -301.01)" fill="#8492a7"/>
      <path id="Path_8480" data-name="Path 8480" d="M270.059,234.89a1.036,1.036,0,0,0-1.448.207L256.2,251.65a1.034,1.034,0,1,0,1.655,1.241l12.415-16.553A1.033,1.033,0,0,0,270.059,234.89Z" transform="translate(-231.154 -192.661)" fill="#8492a7"/>
      <path id="Path_8481" data-name="Path 8481" d="M259.1,242.946c1.741,0,3.1-1.818,3.1-4.138s-1.363-4.138-3.1-4.138-3.1,1.818-3.1,4.138S257.355,242.946,259.1,242.946Zm0-6.207c.422,0,1.035.806,1.035,2.069s-.612,2.069-1.035,2.069-1.035-.806-1.035-2.069S258.673,236.739,259.1,236.739Z" transform="translate(-231.156 -192.648)" fill="#8492a7"/>
      <path id="Path_8482" data-name="Path 8482" d="M344.429,341.337c-1.741,0-3.1,1.818-3.1,4.138s1.363,4.138,3.1,4.138,3.1-1.818,3.1-4.138S346.169,341.337,344.429,341.337Zm0,6.207c-.422,0-1.035-.806-1.035-2.069s.612-2.069,1.035-2.069,1.035.806,1.035,2.069S344.851,347.544,344.429,347.544Z" transform="translate(-308.213 -288.97)" fill="#8492a7"/>
    </g>
  </g>
</svg>
