<svg xmlns="http://www.w3.org/2000/svg" width="26" height="26.003" viewBox="0 0 26 26.003">
  <path id="_1946436" data-name="1946436" d="M25.3,11.309l0,0L14.693.7a2.393,2.393,0,0,0-3.385,0L.706,11.3l-.011.011a2.393,2.393,0,0,0,1.593,4.078q.037,0,.074,0h.423V23.2a2.8,2.8,0,0,0,2.8,2.8h4.15a.762.762,0,0,0,.762-.762V19.12a1.28,1.28,0,0,1,1.278-1.278h2.448A1.28,1.28,0,0,1,15.5,19.12v6.12a.762.762,0,0,0,.762.762h4.15a2.8,2.8,0,0,0,2.8-2.8V15.395h.392A2.394,2.394,0,0,0,25.3,11.309Zm0,0" transform="translate(0 0.001)" fill="#fff"/>
</svg>
