<svg xmlns="http://www.w3.org/2000/svg" width="262.6" height="99.801" viewBox="0 0 262.6 99.801"><g transform="translate(-358.312 -145.639)"><path d="M491.559,182.724a7.763,7.763,0,0,0-2.588-3.277,7.877,7.877,0,0,0-4.9-1.583c-2.836,0-5.262,1.671-7.3,5.021l-13.208,21.463-13.158-21.463q-3.112-5.025-7.352-5.021a7.918,7.918,0,0,0-4.874,1.583,7.245,7.245,0,0,0-2.779,3.914l-9.441,32.312L403.1,183.186a11.943,11.943,0,0,0-3.592-3.35,9.4,9.4,0,0,0-4.963-1.553,9.639,9.639,0,0,0-4.963,1.553,11.8,11.8,0,0,0-3.642,3.35l-27.628,38.322h16.567l19.432-26.667,11.178,15.547h-18l-8.07,11.12,44.795.125h14.711l5.622-22.783,12.139,19.432a7.765,7.765,0,0,0,3.05,2.691,8.81,8.81,0,0,0,4.185,1.077,7.424,7.424,0,0,0,6.576-3.768l5.724-9.214a118.2,118.2,0,0,1,15.335-26.344" transform="translate(0 -4.417)" fill="#174d9f"/><path d="M508.72,225h14.646l-6.553-22.548a91.541,91.541,0,0,0-9.236,17.973Z" transform="translate(-20.46 -7.788)" fill="#2491eb"/><path d="M580.6,182.788q-6.047-4.3-14.9-4.3H536.087L526.542,189.6h40.42a7.826,7.826,0,0,1,4.632,1.334,4.218,4.218,0,0,1,1.885,3.629,4.376,4.376,0,0,1-1.885,3.7,7.552,7.552,0,0,1-4.632,1.393H529.769v21.939h13.392V210.774h22.51q8.9,0,14.932-4.3a14.316,14.316,0,0,0-.008-23.683" transform="translate(-23.059 -4.502)" fill="#2491eb"/><path d="M646.613,184.348q-7.29-5.861-18.714-5.864H607.507l-8.488,11.12H627.9a13.9,13.9,0,0,1,9.119,2.968,9.38,9.38,0,0,1,3.614,7.587,9.083,9.083,0,0,1-3.585,7.47,14.249,14.249,0,0,1-9.148,2.843H612.41V194.691H599.019v26.9H627.9q11.237,0,18.625-6.245a19.711,19.711,0,0,0,7.382-15.694,18.709,18.709,0,0,0-7.293-15.3" transform="translate(-32.994 -4.502)" fill="#2491eb"/><path d="M504.887,237.2c-9.317-7.689-1.994-31.951,16.36-54.191s40.778-34.033,50.094-26.344a9.332,9.332,0,0,1,1.4,1.432,9.941,9.941,0,0,1,1.764,3.694,32.322,32.322,0,0,1,.82,9.137v.145s.711-9.12-2.45-16.411a13.93,13.93,0,0,0-4.513-6.229,12.747,12.747,0,0,0-1.388-.915,12.209,12.209,0,0,0-2.928-1.237c-.041-.012-.081-.024-.123-.035s-.054-.017-.082-.024l0,0c-13.107-3.606-35.333,9.807-52.916,32.891-19.813,26.023-26.219,54.463-14.315,63.531s37.626-4.662,57.438-30.669c-18.172,21.506-40,32.773-49.155,25.223" transform="translate(-18.135)" fill="#2491eb"/></g></svg>