<svg xmlns="http://www.w3.org/2000/svg" width="24" height="17.457" viewBox="0 0 24 17.457">
  <g id="menu" transform="translate(0 -6.631)">
    <path id="Path_5" data-name="Path 5" d="M23,124.4H1a.874.874,0,1,1,0-1.73H23a.874.874,0,1,1,0,1.73Zm0,0" transform="translate(0 -116.037)" fill="#8492a7"/>
    <path id="Path_6" data-name="Path 6" d="M23,1.73H1A.94.94,0,0,1,0,.865.94.94,0,0,1,1,0H23a.94.94,0,0,1,1,.865A.94.94,0,0,1,23,1.73Zm0,0" transform="translate(0 22.358)" fill="#8492a7"/>
    <path id="Path_7" data-name="Path 7" d="M23,247.062H1a.874.874,0,1,1,0-1.73H23a.874.874,0,1,1,0,1.73Zm0,0" transform="translate(0 -230.9)" fill="#8492a7"/>
  </g>
</svg>
