<svg xmlns="http://www.w3.org/2000/svg" width="24" height="24" viewBox="0 0 24 24">
  <g id="Group_50824" data-name="Group 50824" transform="translate(-333 -1888)">
    <rect id="Area" width="24" height="24" transform="translate(333 1888)" fill="#b2b2b2" opacity="0"/>
    <g id="notification" transform="translate(420.301 1791.956)">
      <path id="Path_1757" data-name="Path 1757" d="M-65.734,112.222c-.025-.018-2.567-1.907-2.567-8.177a7.008,7.008,0,0,0-7-7,7.008,7.008,0,0,0-7,7c0,6.27-2.542,8.159-2.555,8.168a1,1,0,0,0-.4,1.123,1,1,0,0,0,.957.709h18a1,1,0,0,0,.945-.7A1.01,1.01,0,0,0-65.734,112.222Zm-16.427-.177a15.119,15.119,0,0,0,1.86-8,5.006,5.006,0,0,1,5-5,5.006,5.006,0,0,1,5,5,15.13,15.13,0,0,0,1.859,8Z" fill="#8492a7"/>
      <path id="Path_1758" data-name="Path 1758" d="M-73.069,116.181a1,1,0,0,0-1.367.363,1,1,0,0,1-1.367.363,1.008,1.008,0,0,1-.364-.364,1,1,0,0,0-1.367-.362,1,1,0,0,0-.362,1.367,3,3,0,0,0,1.09,1.089,2.975,2.975,0,0,0,1.5.4,3,3,0,0,0,2.6-1.494A1,1,0,0,0-73.069,116.181Z" fill="#8492a7"/>
    </g>
  </g>
</svg>
