<svg xmlns="http://www.w3.org/2000/svg" width="240" height="254" viewBox="0 0 240 254">
  <g id="Code_QR" data-name="Code QR" transform="translate(-4741 912)">
    <g id="Group_50817" data-name="Group 50817" transform="translate(4673 -1171)">
      <g id="Group_14" data-name="Group 14">
        <g id="Group_12" data-name="Group 12" transform="translate(3 3)">
          <rect id="Rectangle_2" data-name="Rectangle 2" width="18" height="3" transform="translate(67 256)" fill="#3684f9"/>
          <rect id="Rectangle_3" data-name="Rectangle 3" width="19" height="3" transform="translate(65 275) rotate(-90)" fill="#3684f9"/>
        </g>
        <g id="Group_13" data-name="Group 13" transform="translate(288 259)">
          <rect id="Rectangle_2-2" data-name="Rectangle 2" width="18" height="3" fill="#3684f9"/>
          <rect id="Rectangle_3-2" data-name="Rectangle 3" width="19" height="3" transform="translate(17 19) rotate(-90)" fill="#3684f9"/>
        </g>
      </g>
      <g id="Group_15" data-name="Group 15" transform="translate(68 494)">
        <g id="Group_12-2" data-name="Group 12">
          <rect id="Rectangle_2-3" data-name="Rectangle 2" width="18" height="3" transform="translate(2 16)" fill="#3684f9"/>
          <rect id="Rectangle_3-3" data-name="Rectangle 3" width="19" height="3" transform="translate(3) rotate(90)" fill="#3684f9"/>
        </g>
        <g id="Group_13-2" data-name="Group 13" transform="translate(220)">
          <rect id="Rectangle_2-4" data-name="Rectangle 2" width="18" height="3" transform="translate(0 16)" fill="#3684f9"/>
          <rect id="Rectangle_3-4" data-name="Rectangle 3" width="19" height="3" transform="translate(20) rotate(90)" fill="#3684f9"/>
        </g>
      </g>
    </g>
    <path id="path2282" d="M89.114,235.021H67.631V192.056H110.6v42.966Zm0-6.138h15.345v-30.69H73.769v30.69Zm0-6.138H79.907V204.332H98.321v18.414Zm30.69,12.276h-3.069v-30.69h6.138v12.276h6.138v6.138h-6.138v12.276Zm15.345,0h-6.138v-6.138h6.138V216.607h12.276v6.138h-6.138v12.276Zm39.9,0h-3.069v-6.138h-6.138v-6.138H159.7v6.138h-6.138v-6.138H159.7v-6.138h6.138V210.47H153.562v-6.138h-6.138v6.138h-6.138V198.194h6.138v-6.138h-6.138v-6.138H129.011v12.276h6.138v6.138h-6.138v-6.138H116.735V185.918h12.276V179.78H110.6v6.138h-6.138V179.78H110.6v-6.138h-6.138V167.5H110.6v-6.138H92.183V167.5H86.045v6.138H79.907V161.366H73.769v24.552H67.631V161.366h6.138v-6.138H67.631v-30.69H79.907V118.4H67.631V106.125h30.69v6.138h6.138v-6.138h30.69v6.138h-6.138v12.276h6.138V118.4h12.276v6.138h-6.138v12.276h24.552v6.138h18.414v-6.138h6.138v-6.138h-6.138v-6.138h6.138V118.4H178.114v-6.138h-6.138V118.4H159.7v-6.138h-6.138v-6.138h-6.138v6.138h-6.138V93.849h6.138V87.711h-6.138V81.573h-6.138V99.987h-6.138V81.573H116.735V75.435h6.138V69.3h-6.138V63.159h6.138V57.021h6.138V69.3h6.138V63.159h12.276V69.3h-6.138V81.573h24.552V69.3h6.138V63.159H159.7V57.021h36.828V69.3H190.39V63.159H178.114V69.3h6.138v6.138h6.138v6.138h6.138v6.138H184.252V75.435h-6.138v6.138H165.838v6.138h6.138V99.987h-6.138v12.276h6.138v-6.138h6.138V93.849h6.138v12.276h-6.138v6.138H190.39V118.4h6.138V106.125h6.138v6.138H208.8v-6.138h6.138v6.138h6.138v-6.138h6.138v6.138h6.138v-6.138h6.138v6.138h6.138V118.4h-30.69v6.138h18.414v6.138h6.138v6.138h6.138v6.138H233.355v6.138h12.276V167.5H233.355v-6.138h-6.138V149.09H221.08v6.138h-6.138V149.09H208.8v-6.138h-6.138v-6.138H208.8v-6.138h6.138v-6.138H208.8V118.4h-6.138v12.276h-6.138V149.09h6.138v6.138H190.39v6.138h30.69V167.5h6.138v6.138H221.08v24.552h6.138v6.138h12.276v6.138h6.138v6.138h-6.138v12.276h-6.138v6.138h-6.138v-6.138H208.8v-6.138H196.528v6.138H190.39v6.138h-6.138v-6.138h6.138v-6.138H178.114V210.47h-6.138v6.138h-6.138v6.138h6.138v6.138h6.138v6.138Zm55.241-6.138h3.069v-6.138h-6.138v-6.138h6.138V210.47h-6.138v6.138H221.08V210.47h-6.138v6.138h6.138v6.138h6.138v6.138ZM199.6,216.607H208.8V210.47H190.39v-6.138h-6.138v-6.138H171.976v-6.138h12.276v-6.138h6.138V179.78H208.8v-6.138H221.08V167.5H208.8v6.138H196.528V167.5H178.114v-6.138h6.138v-6.138h-6.138V149.09H153.562v6.138h-6.138v6.138h-6.138V149.09h6.138v-6.138h-6.138v-6.138h-6.138v-6.138h-6.138v6.138h6.138v6.138h-6.138v12.276h6.138V167.5h-6.138v-6.138h-6.138V136.814h-6.138v-6.138h6.138V112.263H104.459V118.4H98.321v-6.138H92.183V118.4H86.045v-6.138H79.907V118.4h6.138v6.138H79.907v6.138H73.769v12.276H86.045v-6.138h6.138v18.414H86.045V149.09H73.769v6.138h6.138v6.138H92.183v-6.138H110.6v6.138h12.276V167.5h-6.138v6.138h18.414V167.5h12.276v6.138h-6.138v12.276H159.7v6.138h6.138v6.138h6.138v6.138h6.138v6.138H190.39v6.138Zm-30.69-24.552h-3.069v-6.138H159.7V179.78h-6.138v-6.138H159.7V167.5h6.138v-6.138H153.562v-6.138h24.552v6.138h-6.138V179.78h6.138v6.138h-6.138v6.138Zm0-6.138h3.069V179.78h-6.138v6.138ZM107.528,149.09h-3.069v-6.138H110.6v-6.138H98.321v-6.138H92.183v-6.138h12.276V118.4h12.276v6.138H104.459v6.138H110.6v6.138h6.138v6.138H110.6v6.138ZM82.976,136.814H79.907v-6.138h6.138v6.138Zm73.655,67.517H159.7v-6.138h-6.138v6.138Zm49.1,0h9.207V185.918H196.528v18.414Zm0-6.138h-3.069v-6.138H208.8v6.138Zm-18.414-49.1h3.069v-6.138h-6.138v6.138Zm39.9-6.138h6.138V130.676H214.942v6.138h6.138v6.138Zm-33.759-12.276h3.069v-6.138H190.39v6.138ZM211.873,118.4h3.069v-6.138H208.8V118.4Zm-55.241-12.276H159.7V99.987h6.138V93.849H159.7v6.138h-6.138V93.849h-6.138v6.138h6.138v6.138ZM132.079,81.573h3.069V75.435h-6.138v6.138Zm42.966-6.138h3.069V69.3h-6.138v6.138Zm61.379,116.621h-3.069v-6.138h-6.138V179.78h6.138v6.138h6.138V173.642h6.138v12.276h-6.138v6.138ZM82.976,185.918H79.907V179.78h6.138v6.138Zm92.069-49.1h-3.069v-6.138h-6.138v-6.138h6.138v6.138h6.138v6.138Zm-18.414-6.138h-3.069v-6.138H159.7v6.138ZM89.114,99.987H67.631V57.021H110.6V99.987Zm0-6.138h15.345V63.159H73.769v30.69Zm0-6.138H79.907V69.3H98.321V87.711ZM119.8,99.987h-3.069V87.711h6.138V99.987Zm73.655,0H190.39V93.849h6.138v6.138Zm30.69,0H202.666V57.021h42.966V99.987Zm0-6.138h15.345V63.159H208.8v30.69Zm0-6.138h-9.207V69.3h18.414V87.711ZM156.631,75.435h-3.069V69.3H159.7v6.138Z" transform="translate(4704.369 -931.021)"/>
  </g>
</svg>
