<svg xmlns="http://www.w3.org/2000/svg" width="89" height="89" viewBox="0 0 89 89">
  <g id="Group_50849" data-name="Group 50849" transform="translate(-112.5 -196.5)">
    <circle id="Ellipse_7" data-name="Ellipse 7" cx="44.5" cy="44.5" r="44.5" transform="translate(112.5 196.5)" fill="#ff0c2c"/>
    <g id="trash" transform="translate(94.5 223.5)">
      <path id="Path_8484" data-name="Path 8484" d="M74.176,4.456H68.05V3.342A3.342,3.342,0,0,0,64.708,0H60.253a3.342,3.342,0,0,0-3.342,3.342V4.456H50.785A2.785,2.785,0,0,0,48,7.24V9.468a1.114,1.114,0,0,0,1.114,1.114H75.847a1.114,1.114,0,0,0,1.114-1.114V7.24A2.785,2.785,0,0,0,74.176,4.456ZM59.139,3.342a1.115,1.115,0,0,1,1.114-1.114h4.456a1.115,1.115,0,0,1,1.114,1.114V4.456H59.139Z" transform="translate(0)" fill="#fff"/>
      <path id="Path_8485" data-name="Path 8485" d="M73.712,184a.348.348,0,0,0-.348.365l.919,19.287a3.337,3.337,0,0,0,3.337,3.183H94.537a3.337,3.337,0,0,0,3.338-3.183l.919-19.287a.348.348,0,0,0-.348-.365Zm16.822,2.785a1.114,1.114,0,1,1,2.228,0v14.481a1.114,1.114,0,0,1-2.228,0Zm-5.569,0a1.114,1.114,0,0,1,2.228,0v14.481a1.114,1.114,0,0,1-2.228,0Zm-5.569,0a1.114,1.114,0,1,1,2.228,0v14.481a1.114,1.114,0,1,1-2.228,0Z" transform="translate(-23.598 -171.19)" fill="#fff"/>
    </g>
  </g>
</svg>
